<?xml version="1.0" standalone="no"?>
<!DOCTYPE svg PUBLIC "-//W3C//DTD SVG 20010904//EN"
 "http://www.w3.org/TR/2001/REC-SVG-20010904/DTD/svg10.dtd">
<svg version="1.0" xmlns="http://www.w3.org/2000/svg"
 width="391.000000pt" height="391.000000pt" viewBox="0 0 391.000000 391.000000"
 preserveAspectRatio="xMidYMid meet">
<metadata>
Created by potrace 1.14, written by Peter Selinger 2001-2017
</metadata>
<g transform="translate(0.000000,391.000000) scale(0.100000,-0.100000)"
fill="#000000" stroke="none">
<path d="M1281 3128 c-29 -5 -66 -15 -83 -24 -74 -39 -140 -123 -154 -199 -9
-54 -9 -1879 0 -1930 5 -22 12 -43 18 -46 5 -3 9 -9 9 -13 -3 -18 3 -27 42
-68 44 -47 101 -82 152 -93 42 -10 1282 -10 1325 0 67 14 169 82 162 106 -1 5
2 9 8 9 15 0 47 71 57 126 9 52 9 1875 0 1909 -30 111 -122 199 -229 221 -46
10 -1242 11 -1307 2z m1179 -305 c62 -38 73 -70 74 -207 1 -109 -1 -125 -22
-158 -12 -20 -40 -45 -61 -55 -37 -19 -66 -20 -523 -20 -453 -1 -485 0 -520
18 -20 10 -47 33 -59 51 -22 30 -23 43 -24 163 0 121 2 133 23 160 33 41 61
58 107 65 22 3 249 5 505 5 458 -1 466 -1 500 -22z m-901 -592 c27 -15 72 -71
65 -82 -3 -5 -2 -9 3 -9 7 0 9 -47 4 -105 -1 -20 -77 -95 -96 -96 -8 -1 -26
-1 -40 -1 -67 0 -84 4 -112 30 -38 33 -60 85 -58 133 3 42 33 111 46 103 5 -3
9 -1 9 4 0 31 132 48 179 23z m458 -8 c18 -10 40 -33 49 -52 18 -38 25 -107
13 -131 -4 -8 -10 -22 -13 -31 -2 -9 -21 -29 -41 -44 -29 -23 -46 -28 -95 -28
-49 0 -65 5 -95 27 -20 16 -41 40 -47 54 -13 34 -11 136 2 140 6 2 10 11 10
20 1 20 41 51 78 61 40 11 103 4 139 -16z m455 -4 c39 -29 61 -75 61 -131 -2
-93 -62 -151 -157 -151 -118 -1 -183 108 -134 224 15 35 28 50 61 66 52 25
127 21 169 -8z m-922 -437 c94 -38 115 -188 36 -258 -20 -17 -43 -32 -53 -33
-21 -3 -91 -3 -112 0 -25 4 -91 78 -92 104 -6 89 -2 107 29 143 45 54 122 72
192 44z m450 1 c31 -13 65 -50 76 -83 12 -35 12 -93 1 -107 -5 -7 -6 -13 -3
-13 16 0 -38 -61 -66 -76 -80 -41 -191 -8 -220 66 -14 36 -12 124 4 151 36 64
133 93 208 62z m460 -8 c32 -16 58 -44 51 -54 -1 -2 3 -7 10 -12 16 -10 15
-109 -2 -141 -39 -75 -129 -103 -209 -64 -52 24 -81 69 -82 123 -1 53 5 93 14
93 4 0 8 6 8 13 0 8 21 25 46 39 54 29 111 31 164 3z m-441 -454 c99 -71 80
-240 -30 -277 -13 -4 -143 -8 -288 -9 -246 0 -265 1 -300 20 -22 12 -44 36
-55 60 -20 39 -30 115 -17 125 3 3 13 18 21 35 9 16 32 39 52 50 34 19 53 20
310 20 272 -1 274 -1 307 -24z m418 15 c52 -12 101 -85 96 -143 0 -7 -1 -26
-2 -43 -1 -34 -68 -109 -98 -111 -69 -5 -103 -3 -103 4 0 4 -4 6 -8 3 -16 -10
-73 49 -86 89 -27 79 1 158 71 193 36 19 74 21 130 8z"/>
</g>
</svg>
